#!OML:ASF X:\für Bonn\!DataBase\2005_08_10_Bjorn_Final\c3d\bjorn.ASF
:FULLY-SPECIFIED
:DEGREES
63
root 0.58717 19.3555 4.59999 -203.226 -40.3262 203.439
lowerback 39.6229 2.27725 -2.50183
upperback 22.3708 -4.74418 0.46739
thorax 5.76326 -5.38825 2.86024
lowerneck -2.97064 -10.1808 -6.18076
upperneck -12.9087 -13.6253 30.5933
head -0.345336 -8.72113 10.2876
rclavicle -5.40694e-014 1.44715e-013
rhumerus -39.0388 -10.9052 -81.4663
rradius 21.3389
rwrist 24.2084
rhand -3.5907 13.3831
rfingers 7.12502
rthumb 22.147 -15.3683
lclavicle -5.40694e-014 1.44715e-013
lhumerus 69.9675 -23.4455 79.7686
lradius 71.6377
lwrist -4.35451
lhand -40.5264 -18.5418
lfingers 7.12502
lthumb -13.4751 11.0022
rfemur -93.0556 -5.44786 21.0727
rtibia 125.374
rfoot -9.0294 18.0662
rtoes -23.1054
lfemur -8.7149 -15.8613 -1.53347
ltibia 29.6862
lfoot -2.60883 -21.031
ltoes 11.015
64
root 0.590784 19.3339 4.60904 -203.39 -40.3048 203.752
lowerback 39.86 2.34844 -2.29224
upperback 22.3842 -4.62863 0.644109
thorax 5.70677 -5.33715 2.91648
lowerneck -3.05357 -10.2043 -6.15049
upperneck -12.884 -13.6578 30.6232
head -0.316748 -8.7307 10.2817
rclavicle -3.18055e-015 1.27222e-014
rhumerus -39.0406 -10.7665 -81.3185
rradius 21.2972
rwrist 24.2206
rhand -3.50746 13.3311
rfingers 7.12502
rthumb 22.2269 -15.4108
lclavicle -3.18055e-015 1.27222e-014
lhumerus 70.231 -23.5836 79.9827
lradius 71.8429
lwrist -4.16688
lhand -40.2871 -18.8357
lfingers 7.12502
lthumb -13.2446 10.7235
rfemur -93.37 -5.39683 21.6496
rtibia 125.515
rfoot -9.22624 18.3419
rtoes -23.7671
lfemur -9.1288 -16.0376 -1.2708
ltibia 30.2932
lfoot -2.89688 -21.0046
ltoes 10.9852
65
root 0.594256 19.3145 4.61774 -203.558 -40.2684 204.042
lowerback 40.0669 2.40931 -2.05287
upperback 22.4171 -4.51934 0.777335
thorax 5.67795 -5.28425 2.90962
lowerneck -3.17262 -10.2179 -6.0109
upperneck -12.8955 -13.6806 30.6354
head -0.305241 -8.745 10.2523
rclavicle 1.17681e-013 6.83819e-014
rhumerus -39.0231 -10.6264 -81.2836
rradius 21.277
rwrist 24.1676
rhand -3.45292 13.2653
rfingers 7.12502
rthumb 22.2792 -15.4704
lclavicle 1.17681e-013 6.83819e-014
lhumerus 70.4497 -23.7459 80.133
lradius 72.0881
lwrist -3.99306
lhand -40.0915 -19.0828
lfingers 7.12502
lthumb -13.056 10.4886
rfemur -93.6594 -5.32069 22.1904
rtibia 125.667
rfoot -9.25138 18.6134
rtoes -24.048
lfemur -9.49162 -16.2184 -1.03327
ltibia 30.8682
lfoot -3.23154 -20.9468
ltoes 10.7362
66
root 0.596536 19.2935 4.62594 -203.725 -40.2539 204.3
lowerback 40.2709 2.46641 -1.85366
upperback 22.4473 -4.42624 0.926114
thorax 5.65195 -5.24546 2.94416
lowerneck -3.26524 -10.2286 -5.89807
upperneck -12.9335 -13.6901 30.6097
head -0.310085 -8.75218 10.2193
rclavicle -5.40694e-014 -6.04305e-014
rhumerus -39.0158 -10.4774 -81.221
rradius 21.3234
rwrist 24.0777
rhand -3.34411 13.1526
rfingers 7.12502
rthumb 22.3837 -15.5706
lclavicle -5.40694e-014 -6.04305e-014
lhumerus 70.6381 -23.8992 80.3046
lradius 72.3232
lwrist -3.86777
lhand -40.0433 -19.1864
lfingers 7.12502
lthumb -13.0096 10.3879
rfemur -93.9306 -5.29466 22.7065
rtibia 125.85
rfoot -9.28348 18.9025
rtoes -24.5314
lfemur -9.82568 -16.388 -0.833072
ltibia 31.4089
lfoot -3.4978 -20.9332
ltoes 10.7391
67
root 0.597705 19.2732 4.63369 -203.863 -40.2155 204.54
lowerback 40.4278 2.50165 -1.6337
upperback 22.4691 -4.34233 1.03021
thorax 5.62676 -5.20092 2.92221
lowerneck -3.36688 -10.2458 -5.79795
upperneck -12.9246 -13.7193 30.6175
head -0.29179 -8.76517 10.1944
rclavicle 0 -4.77083e-015
rhumerus -39.0495 -10.2903 -81.2361
rradius 21.4241
rwrist 23.8807
rhand -3.21978 13.0627
rfingers 7.12502
rthumb 22.503 -15.646
lclavicle 0 -4.77083e-015
lhumerus 70.7857 -24.0758 80.4554
lradius 72.526
lwrist -3.83154
lhand -40.0629 -19.259
lfingers 7.12502
lthumb -13.0284 10.3142
rfemur -94.1839 -5.24046 23.2082
rtibia 126.025
rfoot -9.14304 19.2678
rtoes -24.3158
lfemur -10.156 -16.522 -0.632014
ltibia 31.94
lfoot -3.72413 -20.886
ltoes 10.8599
